<svg width="66" height="66" viewBox="0 0 66 66" fill="none" xmlns="http://www.w3.org/2000/svg">
<path d="M39.5781 59.3994C54.0886 55.9651 63.0678 41.4177 59.6337 26.9067C56.1995 12.3958 41.6524 3.41633 27.1419 6.85058C12.6313 10.2848 3.6521 24.8323 7.08626 39.3432C10.5204 53.8542 25.0675 62.8336 39.5781 59.3994Z" fill="#41B1DB"/>
<path d="M49.3955 24.5786C49.4412 26.1913 49.1129 27.6841 48.5521 29.1341C47.5816 31.6431 46.1659 33.9037 44.606 36.0759C42.4525 39.0787 40.2005 42.0015 37.349 44.3949C35.9505 45.568 34.4505 46.5471 32.6152 46.9267C31.3394 47.1907 30.2662 46.8482 29.3685 45.9605C28.0869 44.6932 27.3348 43.1019 26.8482 41.3993C25.9377 38.2152 25.0914 35.0126 24.2108 31.8201C23.9197 30.7654 23.5615 29.7335 23.0491 28.763C22.9407 28.5575 22.8265 28.3534 22.6966 28.1608C21.9345 27.0262 21.4208 26.9134 20.2648 27.6342C19.8538 27.8896 19.4499 28.1551 19.0574 28.4376C18.8405 28.5932 18.6992 28.6018 18.528 28.3691C18.1797 27.8925 17.8087 27.4301 17.4405 26.9691C17.2949 26.7864 17.2607 26.6394 17.4633 26.4681C19.7339 24.55 21.7847 22.375 24.2479 20.6867C25.1385 20.0773 26.0704 19.5549 27.2207 19.5949C28.3823 19.6348 29.2886 20.1115 29.9622 21.0435C30.7271 22.1024 31.0539 23.3284 31.2652 24.5928C31.7532 27.5057 32.1386 30.4371 32.8735 33.3029C33.119 34.2577 33.3973 35.2039 33.8854 36.0702C34.4819 37.1306 35.1341 37.269 35.9547 36.3913C37.7358 34.486 39.073 32.2939 39.9393 29.8263C40.132 29.2783 40.1505 28.7017 40.1205 28.1251C40.0635 27.0247 39.4298 26.3754 38.3309 26.2898C37.5703 26.2298 36.831 26.3426 36.1103 26.588C35.7806 26.6994 35.6194 26.6451 35.7535 26.2498C36.4571 24.1818 37.4361 22.2794 39.2015 20.9122C41.278 19.3052 43.6527 18.9041 46.1645 19.4907C48.0897 19.9403 48.9003 21.4274 49.2314 23.2399C49.3113 23.6966 49.3456 24.1633 49.3955 24.5786Z" fill="white"/>
</svg>
