<svg width="42" height="43" viewBox="0 0 42 43" fill="none" xmlns="http://www.w3.org/2000/svg">
<path d="M7.21133 7.42761C8.53818 8.49361 9.03593 8.41226 11.5274 8.24789L35.0163 6.85308C35.5143 6.85308 35.1 6.36158 34.9341 6.27989L31.0329 3.49096C30.2856 2.91709 29.2896 2.25984 27.3811 2.42425L4.63686 4.0648C3.80742 4.14615 3.64171 4.55627 3.97208 4.88505L7.21133 7.42761ZM8.62157 12.8411V37.2824C8.62157 38.5959 9.28531 39.0874 10.7792 39.0062L36.5934 37.529C38.088 37.4477 38.2545 36.544 38.2545 35.4771V11.1999C38.2545 10.1345 37.8403 9.56001 36.9252 9.64201L9.94911 11.1999C8.95361 11.2826 8.62157 11.7751 8.62157 12.8411ZM34.1053 14.1522C34.2709 14.8912 34.1053 15.6294 33.3567 15.7124L32.1129 15.9575V34.0015C31.0329 34.5756 30.0372 34.9037 29.2074 34.9037C27.8788 34.9037 27.5461 34.4934 26.5509 33.2637L18.4152 20.6327V32.8537L20.9896 33.4281C20.9896 33.4281 20.9896 34.9037 18.9126 34.9037L13.1867 35.2321C13.0203 34.9037 13.1867 34.0843 13.7674 33.9199L15.2617 33.5106V17.3523L13.187 17.1879C13.0206 16.449 13.435 15.3837 14.5979 15.3009L20.7406 14.8915L29.2074 27.6868V16.3676L27.0487 16.1226C26.883 15.2193 27.5461 14.5633 28.3762 14.482L34.1053 14.1522ZM2.7272 1.85037L26.3849 0.12746C29.2902 -0.118962 30.0375 0.0461036 31.8636 1.35787L39.4152 6.60699C40.6614 7.50964 41.0767 7.75539 41.0767 8.73939V37.529C41.0767 39.333 40.4121 40.4002 38.0883 40.5634L10.6149 42.2043C8.8706 42.2865 8.04043 42.0405 7.12696 40.8915L1.56568 33.7559C0.569176 32.4424 0.154785 31.4596 0.154785 30.3099V4.72002C0.154785 3.24452 0.819567 2.01378 2.7272 1.85037Z" fill="#222222"/>
</svg>
