<svg width="33" height="40" viewBox="0 0 33 40" fill="none" xmlns="http://www.w3.org/2000/svg">
<path d="M0.112793 32.3295C0.112793 29.5824 2.34073 27.3545 5.0878 27.3545H12.1177V39.9002H0.112793V32.3295Z" fill="#0585BC"/>
<path d="M1.9513 7.07584C3.2275 5.16155 4.8606 3.92861 4.8606 3.92861C5.82315 3.20399 6.89386 2.65241 8.2025 2.15491C11.393 0.748933 16.0111 3.18236 16.0111 3.18236C16.0111 3.18236 15.2649 3.39867 14.4537 3.96106C13.3722 4.71812 12.8855 5.82128 12.5502 6.80546C11.7066 9.21726 11.7607 11.4019 11.8689 17.3179C11.8797 17.9019 11.9013 19.1024 11.9121 19.6323C10.571 19.708 8.55941 19.9892 6.32065 20.9626C3.54114 22.1631 1.71336 23.8611 0.729178 24.9426C-0.752508 16.4202 0.210049 9.68231 1.9513 7.07584Z" fill="#0585BC"/>
<path d="M16.4761 27.7871C25.0202 27.7871 32.2123 21.4169 32.2123 13.8354C32.2123 6.25396 25.1716 0.100098 16.4761 0.100098C13.3938 0.100098 10.5061 0.878795 8.08352 2.21988C9.33809 1.86298 10.69 1.74401 12.096 1.93869C16.6924 2.5876 20.3155 5.66994 20.3155 11.402C20.3155 14.3438 18.477 18.3238 14.6916 20.3246C12.9504 21.2439 11.1442 21.8928 9.47869 22.4984C7.52113 23.2014 5.74743 23.8395 4.52531 24.7588C4.4496 24.8129 4.36308 24.8778 4.28738 24.9427C3.05444 25.8512 0.794056 27.6789 0.199219 31.3561C0.415523 30.8694 0.685904 30.4909 0.848133 30.1989C1.65927 28.9768 2.64346 28.3278 3.76824 28.0575C4.68754 27.7871 6.94792 27.7871 7.87803 27.7871H16.4761Z" fill="#4DC2F4"/>
</svg>
